<?xml version="1.0" standalone="no"?>
<!DOCTYPE svg PUBLIC "-//W3C//DTD SVG 20010904//EN"
 "http://www.w3.org/TR/2001/REC-SVG-20010904/DTD/svg10.dtd">
<svg version="1.0" xmlns="http://www.w3.org/2000/svg"
 width="64.000000pt" height="64.000000pt" viewBox="0 0 64.000000 64.000000"
 preserveAspectRatio="xMidYMid meet">

<g transform="translate(0.000000,64.000000) scale(0.100000,-0.100000)"
fill="#000000" stroke="none">
<path d="M65 571 c-9 -15 3 -31 24 -31 14 0 29 -28 64 -122 25 -68 48 -131 52
-140 5 -13 2 -18 -9 -18 -22 0 -56 -36 -56 -60 0 -11 9 -29 20 -40 11 -11 20
-29 20 -40 0 -26 34 -60 60 -60 25 0 60 34 60 59 0 16 8 20 38 23 25 2 37 8
37 18 0 12 -19 16 -95 20 -76 4 -95 8 -95 20 0 13 27 15 170 18 93 1 173 6
177 10 12 13 49 255 40 264 -5 5 -85 7 -178 6 -142 -3 -169 -5 -169 -18 0 -13
25 -15 156 -18 l156 -2 -16 -98 -17 -97 -125 -3 -125 -3 -60 158 c-58 155 -60
158 -91 161 -17 2 -34 -2 -38 -7z m191 -442 c10 -17 -13 -36 -27 -22 -12 12
-4 33 11 33 5 0 12 -5 16 -11z"/>
<path d="M440 160 c-11 -11 -20 -29 -20 -40 0 -11 9 -29 20 -40 11 -11 29 -20
40 -20 26 0 60 34 60 60 0 26 -34 60 -60 60 -11 0 -29 -9 -40 -20z m56 -31
c10 -17 -13 -36 -27 -22 -12 12 -4 33 11 33 5 0 12 -5 16 -11z"/>
</g>
</svg>
